<svg width="49" height="49" viewBox="0 0 49 49" fill="none" xmlns="http://www.w3.org/2000/svg">
<circle cx="24.5" cy="24.5" r="24.5" fill="#F9F9F9"/>
<g clip-path="url(#clip0_9615_198)">
<g clip-path="url(#clip1_9615_198)">
<mask id="path-2-inside-1_9615_198" fill="white">
<path d="M30.5 13.917C29.3739 13.9345 28.2724 14.2488 27.3067 14.8283C26.341 15.4077 25.5453 16.2317 25 17.217C24.4546 16.2317 23.6589 15.4077 22.6932 14.8283C21.7275 14.2488 20.626 13.9345 19.5 13.917C17.7049 13.995 16.0137 14.7802 14.7957 16.1012C13.5778 17.4222 12.9322 19.1715 13 20.967C13 25.514 17.786 30.48 21.8 33.847C22.6962 34.6001 23.8293 35.013 25 35.013C26.1706 35.013 27.3037 34.6001 28.2 33.847C32.214 30.48 37 25.514 37 20.967C37.0677 19.1715 36.4221 17.4222 35.2042 16.1012C33.9863 14.7802 32.295 13.995 30.5 13.917ZM26.915 32.317C26.3789 32.7684 25.7007 33.0159 25 33.0159C24.2992 33.0159 23.621 32.7684 23.085 32.317C17.947 28.006 15 23.87 15 20.967C14.9316 19.7017 15.3663 18.4607 16.2093 17.5147C17.0523 16.5687 18.2352 15.9943 19.5 15.917C20.7647 15.9943 21.9476 16.5687 22.7906 17.5147C23.6336 18.4607 24.0683 19.7017 24 20.967C24 21.2322 24.1053 21.4866 24.2929 21.6741C24.4804 21.8616 24.7347 21.967 25 21.967C25.2652 21.967 25.5195 21.8616 25.7071 21.6741C25.8946 21.4866 26 21.2322 26 20.967C25.9316 19.7017 26.3663 18.4607 27.2093 17.5147C28.0523 16.5687 29.2352 15.9943 30.5 15.917C31.7647 15.9943 32.9476 16.5687 33.7906 17.5147C34.6336 18.4607 35.0683 19.7017 35 20.967C35 23.87 32.053 28.006 26.915 32.313V32.317Z"/>
</mask>
<path d="M30.5 13.917C29.3739 13.9345 28.2724 14.2488 27.3067 14.8283C26.341 15.4077 25.5453 16.2317 25 17.217C24.4546 16.2317 23.6589 15.4077 22.6932 14.8283C21.7275 14.2488 20.626 13.9345 19.5 13.917C17.7049 13.995 16.0137 14.7802 14.7957 16.1012C13.5778 17.4222 12.9322 19.1715 13 20.967C13 25.514 17.786 30.48 21.8 33.847C22.6962 34.6001 23.8293 35.013 25 35.013C26.1706 35.013 27.3037 34.6001 28.2 33.847C32.214 30.48 37 25.514 37 20.967C37.0677 19.1715 36.4221 17.4222 35.2042 16.1012C33.9863 14.7802 32.295 13.995 30.5 13.917ZM26.915 32.317C26.3789 32.7684 25.7007 33.0159 25 33.0159C24.2992 33.0159 23.621 32.7684 23.085 32.317C17.947 28.006 15 23.87 15 20.967C14.9316 19.7017 15.3663 18.4607 16.2093 17.5147C17.0523 16.5687 18.2352 15.9943 19.5 15.917C20.7647 15.9943 21.9476 16.5687 22.7906 17.5147C23.6336 18.4607 24.0683 19.7017 24 20.967C24 21.2322 24.1053 21.4866 24.2929 21.6741C24.4804 21.8616 24.7347 21.967 25 21.967C25.2652 21.967 25.5195 21.8616 25.7071 21.6741C25.8946 21.4866 26 21.2322 26 20.967C25.9316 19.7017 26.3663 18.4607 27.2093 17.5147C28.0523 16.5687 29.2352 15.9943 30.5 15.917C31.7647 15.9943 32.9476 16.5687 33.7906 17.5147C34.6336 18.4607 35.0683 19.7017 35 20.967C35 23.87 32.053 28.006 26.915 32.313V32.317Z" fill="#292D32" stroke="#F9F9F9" stroke-width="0.6" mask="url(#path-2-inside-1_9615_198)"/>
</g>
</g>
<defs>
<clipPath id="clip0_9615_198">
<rect width="24" height="24" fill="white" transform="translate(13 12)"/>
</clipPath>
<clipPath id="clip1_9615_198">
<rect width="24" height="24" fill="white" transform="translate(13 12)"/>
</clipPath>
</defs>
</svg>
